<svg enable-background="new 0 0 140 140" height="512" viewBox="0 0 140 140" width="512" xmlns="http://www.w3.org/2000/svg"><circle cx="70" cy="70" fill="#efc84a" r="64"/><path d="m97.8206329 43.5183258-17.0700073-17.0599995h-40.9199791v75.8300171l31.6736412 31.673645c31.5928345-.7311401 57.5179443-24.3396606 61.8469238-54.9130859z" opacity=".1"/><path d="m80.7501831 26.4550209h-40.9240341v75.8326683h57.9896927v-58.7670135z" fill="#e1e6e9"/><path d="m80.7501831 43.5206757h17.0656586l-17.0656586-17.0656548z" fill="#ebf0f3"/><path d="m47.186745 31.769478h20.177652v22.547487h-20.177652z" fill="#ebf0f3"/><g fill="#d5d6db"><path d="m47.865856 61.107437h41.417156v1.983247h-41.417156z"/><path d="m47.865856 68.331551h41.417156v1.983247h-41.417156z"/><path d="m47.865856 75.555656h41.417156v1.983247h-41.417156z"/><path d="m47.865856 82.779762h41.417156v1.983247h-41.417156z"/><path d="m47.865856 90.003876h41.417156v1.983247h-41.417156z"/></g><path d="m55.098888 40.202263h4.353069v5.922198h-4.353069z" fill="#f7be56"/><path d="m60.7842331 54.316967v-9.0905075l-.6992569-.3829575-2.8095512.5558167-2.8095513-.5558167-.1202507.0658951v9.4075699z" fill="#d5d6db"/><path d="m65.6751251 54.316967v-3.7591591c0-1.1128578-.4139481-2.1854553-1.1626129-3.0093307-.3346558-.3682747-.7284431-.6786919-1.1652908-.9179726l-2.8036079-1.5361862-.4583435-.2513962-.2674828.052433c-.1595192 1.2773895-.7137032 5.2165184-1.9301491 9.4216118z" fill="#2f4859"/><path d="m56.6672897 54.316967c-1.2165604-4.2036972-1.7717361-8.141777-1.9312553-9.420269l-.2701607-.0537758-.4515877.2473183-2.8117638 1.5402641c-.4367867.2392807-.8305779.5496979-1.1638947.9179726-.748661.8238754-1.1626091 1.8964729-1.1626091 3.0093307v3.7591591z" fill="#2f4859"/><path d="m56.1291275 54.316967h2.2893906l-.5467263-6.9007454.5720139-.9907989-.5834351-1.0105477-.5849456-.0155563-.5819741.0155563-.583435 1.0105477.5718994.990509z" fill="#27a2db"/><path d="m59.4519577 43.7318954-2.1765327 1.6674462 1.8091087 2.334423 1.0004692-2.8902397z" fill="#ebf0f3"/><path d="m55.0988884 43.7318954 2.1765366 1.6674462-1.8091126 2.334423-1.0004692-2.8902397z" fill="#ebf0f3"/><path d="m54.244072 50.2593918c.2470856 1.1202545.9939423 2.7239075 1.6846924 4.0575752h.7385254c-1.2166214-4.2036972-1.7717361-8.141777-1.9312553-9.420269-.0349579-.279541-.0510979-.4327698-.0510979-.4327698l-.6706505.6263123-.0040779.0040207-.1504898 3.5267525.6088333.6102333z" fill="#3a556a"/><path d="m58.6251144 54.316967c.6906929-1.3336678 1.4374886-2.9373207 1.6845779-4.0575752l-.2244225-1.0281448.6088333-.6102333-.1504898-3.5267525-.6747284-.6303329s-.01614.1518898-.0510979.431427c-.1595192 1.2773895-.7137604 5.2165184-1.9301491 9.4216118h.7374765z" fill="#3a556a"/><g fill="#fcd462"><ellipse cx="60.543" cy="39.178" rx=".86" ry=".412" transform="matrix(.072 -.997 .997 .072 17.134 96.763)"/><path d="m53.8755608 38.4265747c.2529907-.0129509.486702.4037628.522007.9307518.0353088.526989-.1411591.9647026-.3941498.9776535s-.486702-.4037628-.5220108-.9307518c-.0126114-.1882248-.1514587-.4768181-.1161995-.6269798.0634575-.2702561.3477249-.34235.5103531-.3506737z"/><path d="m60.4683266 40.0968704-.1282883-3.7867393-.4490013-1.2209587-2.6239967-.7078018-2.6239967.7078018-.4490013 1.2209587-.1282883 3.7867393s-.1496658.9201431.1924324 1.592556c.3420944.6724091.6628075.9794617 1.1118126 1.4275703.4490013.4481049 1.0359268.5870514 1.8970413.6148987.8611145-.0278473 1.44804-.1667938 1.8970413-.6148987.4490013-.4481087.7697182-.7551613 1.1118126-1.4275703.3420982-.6724129.1924324-1.592556.1924324-1.592556z"/></g><path d="m55.504055 34.994606s.4642601 1.6862869 4.4685211 1.3904457l.154274 3.3438683s.058033-1.0946045.3191795-.9762688.0870476.917099-.1450806 1.4496117c-.232132.5325127.1287804 1.0513039.1287804 1.0513039s.5960464-1.3666916.7121124-2.4317131.3395844-2.1113777-.1536942-3.5018234-4.2654076-4.4375896-6.1514702-1.6567001c0 0-1.6471519.3254242-1.6471519 2.3371315s.0247803 3.9171753.8952713 5.1615334l-.0154381-1.1715469s-.8363037-.8770256-.2849922-1.2320328.5362701.7034416.5362701.7034416l.1968613-2.636795c.0000001-.0000002 1.0445901-1.0021021.9865571-1.830456z" fill="#3a556a"/><ellipse cx="79.635" cy="72.029" fill="#27a2db" opacity=".15" rx="16.703" ry="16.703" transform="matrix(.973 -.23 .23 .973 -14.419 20.223)"/><ellipse cx="70.696" cy="70.82" fill="#fff" opacity=".15" rx="4.002" ry="4.002" transform="matrix(.973 -.23 .23 .973 -14.38 18.137)"/><circle cx="79.245" cy="74.051" fill="#fff" opacity=".15" r="2.497"/><path d="m92.04673 83.020805h4.740469v7.370381h-4.740469z" fill="#3a556a" transform="matrix(.707 -.707 .707 .707 -33.656 92.158)"/><path d="m66.0628128 58.3573799c-7.5273705 7.5273705-7.5273705 19.7324104 0 27.2597847 7.5273743 7.5273666 19.7379379 7.5328979 27.2653122.0055237 7.5328979-7.5328979 7.5273743-19.7434616 0-27.2708359s-19.7324142-7.5273743-27.2653122.0055275zm24.9347382 24.9347344c-6.2405853 6.2405853-16.3635788 6.235054-22.6041641-.0055313s-6.2406158-16.358078-.0000305-22.5986633c6.2406158-6.2406197 16.3636398-6.2461128 22.6042252-.0055275s6.2405852 16.3691062-.0000306 22.6097221z" fill="#3a556a"/><path d="m112.1083603 98.915657-13.8951187-13.8951187c-.3784027-.3784637-.9920197-.3784637-1.3704834 0l-4.1112366 4.1112366c-.3784637.3784637-.3784637.9920807 0 1.370491l13.8951111 13.8951111c.3784103.3784637.9920273.3784637 1.370491 0l4.1112366-4.1112366c.3784637-.3784637.3784637-.9920806 0-1.3704834z" fill="#2f4859"/></svg>